<?xml version="1.0" encoding="UTF-8"?><svg id="Laag_2" xmlns="http://www.w3.org/2000/svg" viewBox="0 0 98.51 72.66"><defs><style>.cls-1{fill:#c4e1f7;}.cls-1,.cls-2,.cls-3,.cls-4{stroke-miterlimit:10;}.cls-1,.cls-2,.cls-4{stroke:#1d1d1b;}.cls-2{fill:#1d1d1b;}.cls-3{fill:#ddebf9;stroke:#ddebf9;}.cls-4{fill:#83c3ec;}</style></defs><g id="Laag_1-2"><g><path class="cls-1" d="M33.97,56.63c-2.35,3.05-.73,8.81,.64,11.87,2.42,5.43,6.06,3.32,11.36,2.95,8.18-.57,4.68-10.19,4.21-10.74-1.52-1.77-2.25-3.57-2.94-4.47"/><path class="cls-4" d="M33.97,16.03c-2.35-3.05-.73-8.81,.64-11.87,2.42-5.43,6.06-3.32,11.36-2.95,8.18,.57,4.68,10.19,4.21,10.74-1.52,1.77-2.25,3.57-2.94,4.47"/><path class="cls-4" d="M73.49,33.52c-3.57-5.86-3.8-12.39-1.4-16.72,2.31-4.19,6.26-6.05,7.79-6.77,0,0,4.33-2.04,10.85-2.17,.91-.02,1.36,.05,3.06,0,2.63-.07,3.09-.26,3.57,.13,1.39,1.12,.15,4.8,0,5.23-.68,2.02-1.38,2.12-2.3,4.6-.64,1.72-.84,3.12-.89,3.57-.28,2.2,.37,3.94,.26,5.62q-.2,2.95-.38,3.96c-.5,2.82-2.97,3.68-4.98,4.15-2.83,.66-12.88,2.82-15.57-1.6Z"/><path class="cls-1" d="M73.13,38.44c-3.57,5.86-3.8,12.39-1.4,16.72,2.31,4.19,6.26,6.05,7.79,6.77,0,0,4.33,2.04,10.85,2.17,.91,.02,1.36-.05,3.06,0,2.63,.07,3.09,.26,3.57-.13,1.39-1.12,.15-4.8,0-5.23-.68-2.02-1.38-2.12-2.3-4.6-.64-1.72-.84-3.12-.89-3.57-.28-2.2,.37-3.94,.26-5.62q-.2-2.95-.38-3.96c-.5-2.82-2.97-3.68-4.98-4.15-2.83-.66-12.88-2.82-15.57,1.6Z"/><path class="cls-1" d="M.75,39.14C-1.78,27.01,15.84,16.67,18.9,15.52c12.77-4.79,24.94-1.22,38.94,5.62,8.43,4.12,12.43,6.19,16.47,10.09,.49,.47,4.59,4.57,4.85,4.85"/><path class="cls-4" d="M.75,39.14c.67,8.82,13.98,17.54,17.52,18.77,12.89,4.45,25.73,2.64,38.94-5.62,6.13-3.83,12.43-6.19,16.47-10.09,.49-.47,7.02-7.87,4.85-6.34"/><circle class="cls-2" cx="18.85" cy="31.85" r="2.57"/><path class="cls-3" d="M40.89,33.57c0,9.06-2.77,17.49-4.88,17.49s.67-8.01,.67-17.07-2.4-12.4-.28-12.4,4.49,2.91,4.49,11.97Z"/></g></g></svg>