<?xml version="1.0" encoding="UTF-8"?><svg id="Laag_2" xmlns="http://www.w3.org/2000/svg" viewBox="0 0 47.39 114.7"><defs><style>.cls-1{fill:#f9b233;}.cls-1,.cls-2{stroke:#1d1d1b;stroke-miterlimit:10;}.cls-2{fill:none;}</style></defs><g id="Laag_1-2"><g><path class="cls-1" d="M.5,17.44c-.03,.23,2.92,.07,4.71,2.08,.75,.84,.75,1.46,1.39,3.44,.89,2.73,1.62,4.99,3.15,6.76,2.03,2.34,4.74,2.97,5.31,3.1,.79,.17,5.08,1.09,7.19-1.41,2.45-2.9-.18-7.87-.48-8.44-.19-.36-2.17-3.98-6.27-5.2-1.49-.44-1.75-1.43-5.52-1.42-5.1,.02-9.46,.81-9.49,1.09Z"/><path class="cls-1" d="M.75,32.97c-.03,.23,2.92,.07,4.71,2.08,.75,.84,.75,1.46,1.39,3.44,.89,2.73,1.62,4.99,3.15,6.76,2.03,2.34,4.74,2.97,5.31,3.1,.79,.17,5.08,1.09,7.19-1.41,2.45-2.9-.18-7.87-.48-8.44-.19-.36-2.17-3.98-6.27-5.2-1.49-.44-1.75-1.43-5.52-1.42-5.1,.02-9.46,.81-9.49,1.09Z"/><path class="cls-1" d="M.75,47.79c-.03,.23,2.92,.07,4.71,2.08,.75,.84,.75,1.46,1.39,3.44,.89,2.73,1.62,4.99,3.15,6.76,2.03,2.34,4.74,2.97,5.31,3.1,.79,.17,5.08,1.09,7.19-1.41,2.45-2.9-.18-7.87-.48-8.44-.19-.36-2.17-3.98-6.27-5.2-1.49-.44-1.75-1.43-5.52-1.42-5.1,.02-9.46,.81-9.49,1.09Z"/><path class="cls-1" d="M2.83,63.31c-.03,.23,2.92,.07,4.71,2.08,.75,.84,.75,1.46,1.39,3.44,.89,2.73,1.62,4.99,3.15,6.76,2.03,2.34,4.74,2.97,5.31,3.1,.79,.17,5.08,1.09,7.19-1.41,2.45-2.9-.18-7.87-.48-8.44-.19-.36-2.17-3.98-6.27-5.2-1.49-.44-1.75-1.43-5.52-1.42-5.1,.02-9.46,.81-9.49,1.09Z"/><path class="cls-1" d="M45.3,17.26c.05,.23-2.91,.33-4.5,2.5-.67,.91-.62,1.52-1.08,3.55-.63,2.8-1.16,5.12-2.53,7.02-1.81,2.52-4.45,3.39-5.01,3.57-.77,.24-4.96,1.54-7.29-.76-2.7-2.67-.54-7.85-.29-8.45,.16-.38,1.8-4.16,5.77-5.75,1.44-.58,1.61-1.59,5.37-1.91,5.09-.44,9.5-.05,9.55,.23Z"/><path class="cls-1" d="M45.3,30.92c.05,.23-2.91,.33-4.5,2.5-.67,.91-.62,1.52-1.08,3.55-.63,2.8-1.16,5.12-2.53,7.02-1.81,2.52-4.45,3.39-5.01,3.57-.77,.24-4.96,1.54-7.29-.76-2.7-2.67-.54-7.85-.29-8.45,.16-.38,1.8-4.16,5.77-5.75,1.44-.58,1.61-1.59,5.37-1.91,5.09-.44,9.5-.05,9.55,.23Z"/><path class="cls-1" d="M45.3,45.68c.05,.23-2.91,.33-4.5,2.5-.67,.91-.62,1.52-1.08,3.55-.63,2.8-1.16,5.12-2.53,7.02-1.81,2.52-4.45,3.39-5.01,3.57-.77,.24-4.96,1.54-7.29-.76-2.7-2.67-.54-7.85-.29-8.45,.16-.38,1.8-4.16,5.77-5.75,1.44-.58,1.61-1.59,5.37-1.91,5.09-.44,9.5-.05,9.55,.23Z"/><path class="cls-1" d="M46.89,61.24c.05,.23-2.91,.33-4.5,2.5-.67,.91-.62,1.52-1.08,3.55-.63,2.8-1.16,5.12-2.53,7.02-1.81,2.52-4.45,3.39-5.01,3.57-.77,.24-4.96,1.54-7.29-.76-2.7-2.67-.54-7.85-.29-8.45,.16-.38,1.8-4.16,5.77-5.75,1.44-.58,1.61-1.59,5.37-1.91,5.09-.44,9.5-.05,9.55,.23Z"/><path class="cls-1" d="M36.63,.53c.13,.2-2.58,1.38-3.26,3.99-.28,1.09-.01,1.64,.31,3.7,.44,2.83,.81,5.18,.24,7.45-.75,3.01-2.89,4.8-3.34,5.16-.63,.51-4.04,3.27-7.06,1.99-3.49-1.48-3.4-7.1-3.39-7.74,0-.41,.14-4.54,3.24-7.47,1.13-1.07,.91-2.07,4.29-3.76,4.56-2.29,8.8-3.55,8.96-3.32Z"/><path class="cls-2" d="M24.16,23.16c-1.54,18.67-1.38,41.61,3.45,67.15,1.64,8.68,3.66,16.77,5.87,24.26"/></g></g></svg>