<svg xmlns="http://www.w3.org/2000/svg" width="51.596" height="75.246" viewBox="0 0 51.596 75.246">
  <g id="Group_138" data-name="Group 138" transform="translate(-11733.498 -5112.499)">
    <path id="Polygon_1" data-name="Polygon 1" d="M19.477,0,38.954,29.7H0Z" transform="translate(11778.655 5148.27) rotate(166)" fill="#fff"/>
    <g id="Laag_1-2" transform="translate(11733.5 5112.499)">
      <g id="Group_137" data-name="Group 137">
        <path id="Path_34" data-name="Path 34" d="M11.57,4.25V1.5A1,1,0,0,1,12.69.51L37.13,3.57a1,1,0,0,1,.88,1l-.03,3.1" fill="#fff" stroke="#1d1d1b" stroke-miterlimit="10" stroke-width="1"/>
        <path id="Path_35" data-name="Path 35" d="M30.87,22.64,37.98,6.81l13.3,10.7" fill="#fff" stroke="#1d1d1b" stroke-miterlimit="10" stroke-width="1"/>
        <path id="Path_36" data-name="Path 36" d="M30.68,74.8,50.73,64.59l.32-46.99L30.87,22.64" fill="#fff" stroke="#1d1d1b" stroke-miterlimit="10" stroke-width="1"/>
        <path id="Path_37" data-name="Path 37" d="M30.49,74.6.5,67.26.74,17.28l29.99,5.44Z" fill="#fff" stroke="#1d1d1b" stroke-miterlimit="10" stroke-width="1"/>
        <path id="Path_38" data-name="Path 38" d="M.61,17.15,11.57,3.68,37.74,7" fill="#fff" stroke="#1d1d1b" stroke-miterlimit="10" stroke-width="1"/>
        <line id="Line_10" data-name="Line 10" x1="15.4" y1="5.17" transform="translate(35.39 12.05)" fill="#fff" stroke="#1d1d1b" stroke-miterlimit="10" stroke-width="1"/>
        <text id="Milk" transform="matrix(0.987, 0.162, -0.162, 0.987, 4.76, 52.27)" fill="#1d1d1b" font-size="15" font-family="GloucesterMT-ExtraCondensed, Gloucester MT"><tspan x="0" y="0">Milk</tspan></text>
      </g>
    </g>
  </g>
</svg>
