<svg xmlns="http://www.w3.org/2000/svg" width="84.672" height="52.692" viewBox="0 0 84.672 52.692">
  <g id="Group_163" data-name="Group 163" transform="translate(-8687.508 -4716.936)">
    <g id="Laag_1-2" transform="matrix(0.875, -0.485, 0.485, 0.875, 8687.523, 4747.817)">
      <g id="Group_162" data-name="Group 162">
        <path id="Path_57" data-name="Path 57" d="M3.15,8.28A13.517,13.517,0,0,1,6.47,3.81C12.98-1.68,25.65.53,29.36,4.1a9.539,9.539,0,0,0,2.8,2.01A7.612,7.612,0,0,0,37.8,5.8a24.53,24.53,0,0,0,4.48-2.5c.94-.58,5.03-3.07,9.83-2.3a12.991,12.991,0,0,1,8.23,5.3c.21.32,4.86,7.33,1.4,10.4-5.96,5.29-13.89,7.54-15.13,7.53-2.73,0-5.7-.02-8.04-1.66a8.931,8.931,0,0,0-2.94-1.53,9.234,9.234,0,0,0-3.57-.26,10.983,10.983,0,0,0-3.83,1.21c-3.34,1.71-7.53,2.06-10.28,2.3-3.92.33-8.75.74-12.45-2.36-.55-.46-5.7-4.01-4.93-7.19A27.743,27.743,0,0,1,3.14,8.27Z" fill="#ca9e67" stroke="#1d1d1b" stroke-miterlimit="10" stroke-width="1"/>
        <path id="Path_58" data-name="Path 58" d="M7.92,3.3C6.8,5.47,5.88,7.75,5.53,13.29a26.616,26.616,0,0,0,.79,8.9" fill="none" stroke="#1d1d1b" stroke-miterlimit="10" stroke-width="0.25"/>
        <path id="Path_59" data-name="Path 59" d="M13.79.9c-1.12,2.07-2.91,7.83-2.86,14.18a38.96,38.96,0,0,0,.91,9.13" fill="none" stroke="#1d1d1b" stroke-miterlimit="10" stroke-width="0.25"/>
        <path id="Path_60" data-name="Path 60" d="M19.18.9a37.076,37.076,0,0,0-2.53,14.03,43.51,43.51,0,0,0,.8,9.03" fill="none" stroke="#1d1d1b" stroke-miterlimit="10" stroke-width="0.25"/>
        <path id="Path_61" data-name="Path 61" d="M24.97,2.08a37.669,37.669,0,0,0-2.05,12.84,44.281,44.281,0,0,0,.65,8.27" fill="none" stroke="#1d1d1b" stroke-miterlimit="10" stroke-width="0.25"/>
        <path id="Path_62" data-name="Path 62" d="M30.08,4.81a40.069,40.069,0,0,0-1.11,9.9,49.493,49.493,0,0,0,.35,6.38" fill="none" stroke="#1d1d1b" stroke-miterlimit="10" stroke-width="0.25"/>
        <path id="Path_63" data-name="Path 63" d="M32.94,6.77a60.793,60.793,0,0,1,.58,8.89c0,2.44-.07,4.43-.18,5.72" fill="none" stroke="#1d1d1b" stroke-miterlimit="10" stroke-width="0.25"/>
        <path id="Path_64" data-name="Path 64" d="M37.15,6.49a55.646,55.646,0,0,1,.67,9.06c0,2.48-.08,4.51-.21,5.83" fill="none" stroke="#1d1d1b" stroke-miterlimit="10" stroke-width="0.25"/>
        <path id="Path_65" data-name="Path 65" d="M41.97,3.3a36.173,36.173,0,0,1,2.05,12.57,42.352,42.352,0,0,1-.65,8.09" fill="none" stroke="#1d1d1b" stroke-miterlimit="10" stroke-width="0.25"/>
        <path id="Path_66" data-name="Path 66" d="M47.87.9A37.8,37.8,0,0,1,50.4,15.08a36.433,36.433,0,0,1-.84,8.46" fill="none" stroke="#1d1d1b" stroke-miterlimit="10" stroke-width="0.25"/>
        <path id="Path_67" data-name="Path 67" d="M53.5.9a29.341,29.341,0,0,1,2.86,13.09c-.03,3.59.04,4.82-.52,6.73" fill="none" stroke="#1d1d1b" stroke-miterlimit="10" stroke-width="0.25"/>
        <path id="Path_68" data-name="Path 68" d="M4.72,6.42A19.852,19.852,0,0,1,14.96,3.31c.98-.02,9.01-.06,12.83,4.55a6.229,6.229,0,0,0,1.44,1.48c1.33.91,3.55,1.48,8.47-.05,4.17-1.3,5.78-2.71,7.95-3.64,2.96-1.27,7.76-1.99,15.51,1.2" fill="none" stroke="#1d1d1b" stroke-miterlimit="10" stroke-width="0.25"/>
        <path id="Path_69" data-name="Path 69" d="M3.88,7.81a22.762,22.762,0,0,1,9.38-2.15c4.9-.05,11.83,1.53,14.71,5.55a4.219,4.219,0,0,0,.89,1.05c2.45,2,7.01.48,10.47-.72,3.65-1.27,3.2-1.69,6.22-2.59A27.164,27.164,0,0,1,54.04,7.8,24.883,24.883,0,0,1,61.4,9.19" fill="none" stroke="#1d1d1b" stroke-miterlimit="10" stroke-width="0.25"/>
        <path id="Path_70" data-name="Path 70" d="M1.81,12.5a20.807,20.807,0,0,1,6.76-1.82,25.139,25.139,0,0,1,6.16.34,50.412,50.412,0,0,1,9.61,2.25c2.6.88,2.32,1.02,3.81,1.39a20.265,20.265,0,0,0,8.86.05c4.41-.84,6.27-2.3,8.96-3.3,3.31-1.23,8.51-1.99,16.42.62" fill="none" stroke="#1d1d1b" stroke-miterlimit="10" stroke-width="0.25"/>
        <path id="Path_71" data-name="Path 71" d="M1.58,17.67a39.146,39.146,0,0,0,10.09,3.21A34.292,34.292,0,0,0,26.29,19.3a24.425,24.425,0,0,1,3.67-1.15c3.15-.55,5.51.11,10.11,1.24,5.1,1.26,7.66,1.89,8.18,1.91a21.126,21.126,0,0,0,11.99-3.06c.36-.23.65-.43.84-.57" fill="none" stroke="#1d1d1b" stroke-miterlimit="10" stroke-width="0.25"/>
        <path id="Path_72" data-name="Path 72" d="M1.06,14.75c4.59.76,9.15,1.14,11.82,1.34,4.5.34,8.01.36,13.89.38,5.65.03,5.39-.1,10.03-.05,7.86.08,8.91.44,12.85.29A60.861,60.861,0,0,0,62.4,14.84" fill="none" stroke="#1d1d1b" stroke-miterlimit="10" stroke-width="0.25"/>
      </g>
    </g>
    <g id="Laag_1-2-2" data-name="Laag_1-2" transform="translate(8708.508 4744.505)">
      <g id="Group_162-2" data-name="Group 162">
        <path id="Path_57-2" data-name="Path 57" d="M3.15,8.28A13.517,13.517,0,0,1,6.47,3.81C12.98-1.68,25.65.53,29.36,4.1a9.539,9.539,0,0,0,2.8,2.01A7.612,7.612,0,0,0,37.8,5.8a24.53,24.53,0,0,0,4.48-2.5c.94-.58,5.03-3.07,9.83-2.3a12.991,12.991,0,0,1,8.23,5.3c.21.32,4.86,7.33,1.4,10.4-5.96,5.29-13.89,7.54-15.13,7.53-2.73,0-5.7-.02-8.04-1.66a8.931,8.931,0,0,0-2.94-1.53,9.234,9.234,0,0,0-3.57-.26,10.983,10.983,0,0,0-3.83,1.21c-3.34,1.71-7.53,2.06-10.28,2.3-3.92.33-8.75.74-12.45-2.36-.55-.46-5.7-4.01-4.93-7.19A27.743,27.743,0,0,1,3.14,8.27Z" fill="#ca9e67" stroke="#1d1d1b" stroke-miterlimit="10" stroke-width="1"/>
        <path id="Path_58-2" data-name="Path 58" d="M7.92,3.3C6.8,5.47,5.88,7.75,5.53,13.29a26.616,26.616,0,0,0,.79,8.9" fill="none" stroke="#1d1d1b" stroke-miterlimit="10" stroke-width="0.25"/>
        <path id="Path_59-2" data-name="Path 59" d="M13.79.9c-1.12,2.07-2.91,7.83-2.86,14.18a38.96,38.96,0,0,0,.91,9.13" fill="none" stroke="#1d1d1b" stroke-miterlimit="10" stroke-width="0.25"/>
        <path id="Path_60-2" data-name="Path 60" d="M19.18.9a37.076,37.076,0,0,0-2.53,14.03,43.51,43.51,0,0,0,.8,9.03" fill="none" stroke="#1d1d1b" stroke-miterlimit="10" stroke-width="0.25"/>
        <path id="Path_61-2" data-name="Path 61" d="M24.97,2.08a37.669,37.669,0,0,0-2.05,12.84,44.281,44.281,0,0,0,.65,8.27" fill="none" stroke="#1d1d1b" stroke-miterlimit="10" stroke-width="0.25"/>
        <path id="Path_62-2" data-name="Path 62" d="M30.08,4.81a40.069,40.069,0,0,0-1.11,9.9,49.493,49.493,0,0,0,.35,6.38" fill="none" stroke="#1d1d1b" stroke-miterlimit="10" stroke-width="0.25"/>
        <path id="Path_63-2" data-name="Path 63" d="M32.94,6.77a60.793,60.793,0,0,1,.58,8.89c0,2.44-.07,4.43-.18,5.72" fill="none" stroke="#1d1d1b" stroke-miterlimit="10" stroke-width="0.25"/>
        <path id="Path_64-2" data-name="Path 64" d="M37.15,6.49a55.646,55.646,0,0,1,.67,9.06c0,2.48-.08,4.51-.21,5.83" fill="none" stroke="#1d1d1b" stroke-miterlimit="10" stroke-width="0.25"/>
        <path id="Path_65-2" data-name="Path 65" d="M41.97,3.3a36.173,36.173,0,0,1,2.05,12.57,42.352,42.352,0,0,1-.65,8.09" fill="none" stroke="#1d1d1b" stroke-miterlimit="10" stroke-width="0.25"/>
        <path id="Path_66-2" data-name="Path 66" d="M47.87.9A37.8,37.8,0,0,1,50.4,15.08a36.433,36.433,0,0,1-.84,8.46" fill="none" stroke="#1d1d1b" stroke-miterlimit="10" stroke-width="0.25"/>
        <path id="Path_67-2" data-name="Path 67" d="M53.5.9a29.341,29.341,0,0,1,2.86,13.09c-.03,3.59.04,4.82-.52,6.73" fill="none" stroke="#1d1d1b" stroke-miterlimit="10" stroke-width="0.25"/>
        <path id="Path_68-2" data-name="Path 68" d="M4.72,6.42A19.852,19.852,0,0,1,14.96,3.31c.98-.02,9.01-.06,12.83,4.55a6.229,6.229,0,0,0,1.44,1.48c1.33.91,3.55,1.48,8.47-.05,4.17-1.3,5.78-2.71,7.95-3.64,2.96-1.27,7.76-1.99,15.51,1.2" fill="none" stroke="#1d1d1b" stroke-miterlimit="10" stroke-width="0.25"/>
        <path id="Path_69-2" data-name="Path 69" d="M3.88,7.81a22.762,22.762,0,0,1,9.38-2.15c4.9-.05,11.83,1.53,14.71,5.55a4.219,4.219,0,0,0,.89,1.05c2.45,2,7.01.48,10.47-.72,3.65-1.27,3.2-1.69,6.22-2.59A27.164,27.164,0,0,1,54.04,7.8,24.883,24.883,0,0,1,61.4,9.19" fill="none" stroke="#1d1d1b" stroke-miterlimit="10" stroke-width="0.25"/>
        <path id="Path_70-2" data-name="Path 70" d="M1.81,12.5a20.807,20.807,0,0,1,6.76-1.82,25.139,25.139,0,0,1,6.16.34,50.412,50.412,0,0,1,9.61,2.25c2.6.88,2.32,1.02,3.81,1.39a20.265,20.265,0,0,0,8.86.05c4.41-.84,6.27-2.3,8.96-3.3,3.31-1.23,8.51-1.99,16.42.62" fill="none" stroke="#1d1d1b" stroke-miterlimit="10" stroke-width="0.25"/>
        <path id="Path_71-2" data-name="Path 71" d="M1.58,17.67a39.146,39.146,0,0,0,10.09,3.21A34.292,34.292,0,0,0,26.29,19.3a24.425,24.425,0,0,1,3.67-1.15c3.15-.55,5.51.11,10.11,1.24,5.1,1.26,7.66,1.89,8.18,1.91a21.126,21.126,0,0,0,11.99-3.06c.36-.23.65-.43.84-.57" fill="none" stroke="#1d1d1b" stroke-miterlimit="10" stroke-width="0.25"/>
        <path id="Path_72-2" data-name="Path 72" d="M1.06,14.75c4.59.76,9.15,1.14,11.82,1.34,4.5.34,8.01.36,13.89.38,5.65.03,5.39-.1,10.03-.05,7.86.08,8.91.44,12.85.29A60.861,60.861,0,0,0,62.4,14.84" fill="none" stroke="#1d1d1b" stroke-miterlimit="10" stroke-width="0.25"/>
      </g>
    </g>
  </g>
</svg>
