<?xml version="1.0" encoding="UTF-8"?><svg id="Laag_2" xmlns="http://www.w3.org/2000/svg" viewBox="0 0 87.01 50.57"><defs><style>.cls-1{fill:#3aaa35;}.cls-1,.cls-2,.cls-3{stroke:#1d1d1b;stroke-miterlimit:10;}.cls-2{fill:#95c11f;}.cls-3{fill:#008d36;}</style></defs><g id="Laag_1-2"><g><path class="cls-2" d="M29.27,24.53c.01-1.52,.25-6.77,4.21-11.11,3.2-3.49,9.13-6.74,14.94-4.79,5.29,1.78,7.74,6.96,8.04,8.23,.23,.97,.28,1.95,.28,1.95,.03,.75-.02,1.39-.09,1.88"/><path class="cls-2" d="M56.75,20.77c.01-1.52,.25-6.77,4.21-11.11,3.2-3.49,9.13-6.74,14.94-4.79,5.29,1.78,7.74,6.96,8.04,8.23,.23,.97,.28,1.95,.28,1.95s.04,.94-.09,1.88c-.7,5.08-12.26,8.82-12.26,8.82-17.3,5.59-33.51,7.66-33.51,7.66s-14.07,1.8-30.64-1.15c-1.55-.27-4.73-.89-5.94-3.26C.02,25.55,3.55,20.38,6,17.9c.75-.76,7.42-7.31,14.94-4.79,5.29,1.78,7.74,6.96,8.04,8.23,.23,.97,.28,1.95,.28,1.95,.03,.75-.02,1.39-.09,1.88"/><circle class="cls-1" cx="19.4" cy="29.2" r="12.06"/><circle class="cls-1" cx="43.67" cy="27.28" r="12.06"/><circle class="cls-1" cx="67.95" cy="22.88" r="12.06"/><g><path class="cls-3" d="M1.84,26.15c2.58-1.61,7.07,2.39,17.81,4.79,20.36,4.55,47.98-.05,59.55-10.15,1.44-1.26,3.64-3.48,4.98-3.1,2.27,.65,1.81,8.75-2.68,14.66-6.11,8.03-16.98,13.66-29.11,16.03-14.73,2.88-29.28,2.21-39.64-3.07C2.28,39.98-1.88,28.47,1.84,26.15Z"/><path class="cls-3" d="M82.4,.1c.54,2.76,3.8,12.83,4.02,16.19,.43,6.43-.95,7.1-2.15,11"/></g></g></g></svg>