<?xml version="1.0" encoding="UTF-8"?><svg id="Laag_2" xmlns="http://www.w3.org/2000/svg" viewBox="0 0 55.23 32.02"><defs><style>.cls-1{fill:#936037;}.cls-1,.cls-2,.cls-3,.cls-4{stroke:#1d1d1b;stroke-miterlimit:10;}.cls-2{fill:#fff;}.cls-3{fill:#d47d83;}.cls-4{fill:#ededed;}</style></defs><g id="Laag_1-2"><g><path class="cls-4" d="M49.92,20.3c-.04-.08-.1-.21-.16-.38-.22-.7-.05-1.33,.05-1.67,.15-.5,.36-.84,.42-.92,.23-.35,.54-.83,1.1-1.03,.7-.25,1.37,.07,1.78,.26,.27,.13,.83,.39,1.22,.99,.61,.94,.37,2,.24,2.59-.12,.52-.4,1.75-1.15,1.97-.23,.07-.6,.07-.7,.31-.06,.14,0,.29,.02,.33,.11,.28,.42,.39,.56,.45,0,0,.67,.29,1.13,.94,.43,.6,.25,1.63-.17,2.28-.58,.92-1.52,1.44-2.25,1.57-.59,.11-1.31-.11-1.97-.45-.05-.02-1.04-.55-1.13-1.44-.04-.38,.27-.4,.41-1.3,.1-.64,.01-1-.15-1.18-.2-.21-.49-.04-1.45-.03-.5,0-.46-.04-1.41-.07-.09,0-.65-.02-1.15-.01-1.45,.02-2.03,.48-2.48,.22-.35-.2-.66-.86-.27-3.02"/><path class="cls-1" d="M14.29,.54c7.62-.31,11.1,1.4,13.61,2.88,6.27,3.71,10.65,12.58,15.33,13.74,.41,.1,1.9,.41,2.89,1.66,1.03,1.3,.95,2.87,.94,3.08-.16,2.39-2.36,3.95-3.52,4.74-2.08,1.42-4.07,1.97-11.18,2.84-3.76,.46-6.64,.74-11.11,1.18-2.95,.3-5.36,.54-6.96,.71"/><ellipse class="cls-2" cx="14.86" cy="16.01" rx="14.36" ry="15.51"/><ellipse class="cls-3" cx="14.29" cy="15.68" rx="10.34" ry="11.52"/><path class="cls-2" d="M9.23,16.04c.5-1.35,2-2.05,3.35-1.55,1.35,.5,2.05,2,1.55,3.35s-2,2.05-3.35,1.55-2.05-2-1.55-3.35Z"/></g></g></svg>