<?xml version="1.0" encoding="UTF-8"?><svg id="Laag_2" xmlns="http://www.w3.org/2000/svg" viewBox="0 0 116.77 91.48"><defs><style>.cls-1{fill:#e7b5b6;}.cls-1,.cls-2,.cls-3{stroke:#1d1d1b;stroke-miterlimit:10;}.cls-2{fill:#d47d83;}.cls-3{fill:#1d1d1b;}</style></defs><g id="Laag_1-2"><g><path class="cls-2" d="M78.54,10.05C89.55-2.11,116.98-1.41,116.26,5.21c-2.5,22.98-8.9,42.4-13.68,29.09"/><path class="cls-2" d="M14.19,33.72C12.33,47.93,3.01,27.61,.51,4.63-.21-1.99,29.75-.57,40.76,11.59"/><path class="cls-1" d="M108.38,65.42c-1.96,16.82-18.34,25.55-49.94,25.55S7.27,80.41,7.27,63.47C7.27,29.61,23.53,3.74,58.44,4.26c35.53,.52,53.53,30.31,49.94,61.17Z"/><ellipse class="cls-2" cx="60.39" cy="66.58" rx="24.3" ry="22.2"/><ellipse class="cls-3" cx="46.7" cy="41.31" rx="2.36" ry="4.81"/><ellipse class="cls-3" cx="74.1" cy="41.31" rx="2.36" ry="4.81"/><ellipse class="cls-3" cx="55.07" cy="67.64" rx="3.3" ry="4.16"/><ellipse class="cls-3" cx="65.94" cy="67.64" rx="3.3" ry="4.16"/></g></g></svg>