<svg xmlns="http://www.w3.org/2000/svg" width="115.083" height="87.801" viewBox="0 0 115.083 87.801">
  <g id="Laag_1-2" transform="translate(0.445 0.397)">
    <g id="Group_139" data-name="Group 139" transform="translate(0 0)">
      <path id="Path_39" data-name="Path 39" d="M71.22,61.22a6.439,6.439,0,0,0,2.55,3.32c2.76,1.72,6.65.66,8.94-.77,1.85-1.15,2.16-2.23,3.96-2.68a6.777,6.777,0,0,1,4.34.51" transform="translate(-47.644 -0.505)" fill="none" stroke="#1d1d1b" stroke-miterlimit="10" stroke-width="1"/>
      <path id="Path_40" data-name="Path 40" d="M76.03,59.2a6.439,6.439,0,0,0,2.55,3.32c2.76,1.72,6.65.66,8.94-.77,1.85-1.15,2.16-2.23,3.96-2.68a6.777,6.777,0,0,1,4.34.51" transform="translate(-57.264 -0.505)" fill="none" stroke="#1d1d1b" stroke-miterlimit="10" stroke-width="1"/>
      <path id="Path_41" data-name="Path 41" d="M81.12,50.14a6.439,6.439,0,0,0,2.55,3.32c2.76,1.72,6.65.66,8.94-.77,1.85-1.15,2.16-2.23,3.96-2.68a6.777,6.777,0,0,1,4.34.51" transform="translate(-67.444 -0.505)" fill="none" stroke="#1d1d1b" stroke-miterlimit="10" stroke-width="1"/>
      <path id="Path_42" data-name="Path 42" d="M81.12,53.18a6.439,6.439,0,0,0,2.55,3.32c2.76,1.72,6.65.66,8.94-.77,1.85-1.15,2.16-2.23,3.96-2.68a6.777,6.777,0,0,1,4.34.51" transform="translate(-67.444 -0.505)" fill="none" stroke="#1d1d1b" stroke-miterlimit="10" stroke-width="1"/>
      <path id="Path_43" data-name="Path 43" d="M52,40.17a6.439,6.439,0,0,0,2.55,3.32c2.76,1.72,6.65.66,8.94-.77,1.85-1.15,2.16-2.23,3.96-2.68a6.777,6.777,0,0,1,4.34.51" transform="translate(-9.204 -0.505)" fill="none" stroke="#1d1d1b" stroke-miterlimit="10" stroke-width="1"/>
      <path id="Path_44" data-name="Path 44" d="M2.078,26.16c2.3-.2,6.23-2.41,9.08-7.94.88-1.7,3.47-12.56,11.98-15.55,3.82-1.34,9.63-3.39,16.42-1.21,1.76.56,8.64,2.77,12.02,9.96a19.345,19.345,0,0,1,.11,15.47" transform="translate(59.238 -0.505)" fill="none" stroke="#1d1d1b" stroke-miterlimit="10" stroke-width="1"/>
      <path id="Path_45" data-name="Path 45" d="M51.322,77.43c-1.26-1.84.74-5.55,2.75-7.53,3.39-3.35,8.5-3.49,11.95-2.24,1.3.47,3.51,1.27,3.75,2.78.4,2.56-5.13,5.35-8.16,6.47-1.06.39-8.49,3.15-10.3.52Z" transform="translate(-6.136 -0.505)" fill="#d47d83" stroke="#1d1d1b" stroke-miterlimit="10" stroke-width="1"/>
      <path id="Path_46" data-name="Path 46" d="M52.862,76.74c-1.26,1.84.74,5.55,2.75,7.53,3.39,3.35,8.5,3.49,11.95,2.24,1.3-.47,3.51-1.27,3.75-2.78.4-2.56-5.13-5.35-8.16-6.47-1.06-.39-8.49-3.15-10.3-.52Z" transform="translate(-9.216 -0.505)" fill="#d47d83" stroke="#1d1d1b" stroke-miterlimit="10" stroke-width="1"/>
      <path id="Path_47" data-name="Path 47" d="M114.489,31.17c1.52-.89-15.29-7.58-16.72-8.81a42.869,42.869,0,0,0-9.06-6.26c-6.6-3.4-16.92.6-21.19,1.34-5.82,1.01-9.92,3.45-14.05,6.32A26.262,26.262,0,0,0,45.3,35.5c-3.29,9.23-.52,17.4.64,20.81a38.8,38.8,0,0,0,13.28,18c5.88,4.4,10.64,7,20.68,7.66,3.66.24,4.18-.7,7.1-1.5,2.21-.61,5.33-4.54,3.24-6.03-4.02-2.87-8.15-1.31-14.68-5.74-4.08-2.77-8.75-5.05-12.13-11.11-1.27-2.28-.32-8.78.89-9.7.61-.46,8.37-1.63,10.85-2.59,2-.77,10.89.73,20.39-5.07,6.21-3.79,14.29-6.99,12.89-7.62-1.27-.57-3.16,1.17-9.43-.29-1-.23-.56.1-3.11-.24-4.19-.56-4.16-.75-4.15-1.04.02-.61,20.17,1.63,22.72.13Z" transform="translate(-43.743 -0.505)" fill="#e5a49a" stroke="#1d1d1b" stroke-miterlimit="10" stroke-width="1"/>
      <path id="Path_48" data-name="Path 48" d="M56.163,46.12c3.94,4.39,19.2-2.34,29.27-6.78,4.33-1.91,13.37-6.18,13.04-7.22a.26.26,0,0,0-.15-.14c-1.27-.55-3.16,1.12-9.43-.28-1-.22-.56.1-3.11-.23-4.19-.54-4.16-.72-4.15-1,.02-.59,20.17,1.57,22.72.12,1.52-.86-15.29-7.31-16.72-8.5a42.419,42.419,0,0,0-9.06-6.03c-6.6-3.28-16.92.58-21.19,1.29-7.98,1.33-14.08,3.81-14.05,6.1.02,1.76,3.74,1.95,7.47,6.56a20.425,20.425,0,0,1,3.06,5.3c2.62,6.25.5,8.81,2.29,10.81Z" transform="translate(-33.197 -0.505)" fill="#d47d83" stroke="#1d1d1b" stroke-miterlimit="10" stroke-width="1"/>
      <path id="Path_49" data-name="Path 49" d="M113.444,67.97c-.14-1.12-2.3-2.54-2.68-3-1.45-1.75-4.47-3.6-8.87-9.83-4.21.36-6.43.33-6.43.33a19.721,19.721,0,0,1-4.6-.38c-.97-.22-1.25-.38-2.94-.77-2.16-.5-3.48-.64-3.53-.46,0,.02,0,.02.06.15.12.26.19.44.2.46a46.062,46.062,0,0,0,10.91,17.89c4.4,3.64,8.25,4.99,10.72,4.65,2.36-.33,5.31-2.5,5.77-4.97.18-.96-.1-1.56.38-2.81.63-1.66,1.11-.39,1-1.28Z" transform="translate(-83.258 -0.505)" fill="#d47d83" stroke="#1d1d1b" stroke-miterlimit="10" stroke-width="1"/>
      <circle id="Ellipse_25" data-name="Ellipse 25" cx="1.99" cy="1.99" r="1.99" transform="translate(48.716 17.605)" fill="#1d1d1b" stroke="#1d1d1b" stroke-miterlimit="10" stroke-width="1"/>
      <path id="Path_50" data-name="Path 50" d="M.5,26.13c2.29.33,6.61-.93,10.65-5.67,1.24-1.46,6.24-11.44,15.21-12.42,4.02-.44,10.14-1.11,16.27,2.56,1.58.95,7.78,4.66,9.44,12.43a19.338,19.338,0,0,1-3.41,15.09" transform="translate(61.628 -0.505)" fill="none" stroke="#1d1d1b" stroke-miterlimit="10" stroke-width="1"/>
      <path id="Path_51" data-name="Path 51" d="M59.9,46.43a6.439,6.439,0,0,0,2.55,3.32c2.76,1.72,6.65.66,8.94-.77,1.85-1.15,2.16-2.23,3.96-2.68a6.777,6.777,0,0,1,4.34.51" transform="translate(-25.004 -0.505)" fill="none" stroke="#1d1d1b" stroke-miterlimit="10" stroke-width="1"/>
    </g>
  </g>
</svg>
