<svg id="Laag_1-2" xmlns="http://www.w3.org/2000/svg" width="52.34" height="55.92" viewBox="0 0 52.34 55.92">
  <g id="Group_143" data-name="Group 143">
    <ellipse id="Ellipse_27" data-name="Ellipse 27" cx="26.17" cy="27.96" rx="26.17" ry="27.96" transform="translate(0 0)" fill="#fc6c59"/>
    <g id="Group_142" data-name="Group 142">
      <path id="Path_55" data-name="Path 55" d="M7.98,23.36a74.552,74.552,0,0,0,2.24,9.34c1.63,4.49,6.96,6.29,9.32,6.59,2.27.29,9.22,1.26,15.25-.61a13.293,13.293,0,0,0,8.34-7.91c1.1-2.91.98-6.41,1.24-7.41" fill="#fff" stroke="#fff" stroke-miterlimit="10" stroke-width="1"/>
      <path id="Path_56" data-name="Path 56" d="M17.22,40.46a41.585,41.585,0,0,0,6.87,1.03A31.889,31.889,0,0,0,35.84,40.3a20.051,20.051,0,0,1,0,3.95c-.4,2.35-18.69,2.59-19.29,0a10.994,10.994,0,0,1,.19-4.45" fill="#fff"/>
      <ellipse id="Ellipse_28" data-name="Ellipse 28" cx="18.2" cy="3.46" rx="18.2" ry="3.46" transform="translate(7.97 19.9)" fill="#fc6c59" stroke="#fff" stroke-miterlimit="10" stroke-width="1"/>
    </g>
  </g>
</svg>
