<svg xmlns="http://www.w3.org/2000/svg" width="29.25" height="29.25" viewBox="0 0 29.25 29.25">
  <g id="Group_159" data-name="Group 159" transform="translate(-7868 -5210)">
    <circle id="Ellipse_12" data-name="Ellipse 12" cx="14.625" cy="14.625" r="14.625" transform="translate(7868 5210)" fill="#fff"/>
    <path id="Icon_ionic-ios-close-circle" data-name="Icon ionic-ios-close-circle" d="M18,3.375A14.625,14.625,0,1,0,32.625,18,14.623,14.623,0,0,0,18,3.375Zm3.705,19.92L18,19.589l-3.705,3.705a1.124,1.124,0,1,1-1.589-1.589L16.411,18l-3.705-3.705a1.124,1.124,0,0,1,1.589-1.589L18,16.411l3.705-3.705a1.124,1.124,0,1,1,1.589,1.589L19.589,18l3.705,3.705a1.129,1.129,0,0,1,0,1.589A1.116,1.116,0,0,1,21.705,23.295Z" transform="translate(7864.625 5206.625)" fill="#fc6c59"/>
  </g>
</svg>
