<svg xmlns="http://www.w3.org/2000/svg" width="32.131" height="19.936" viewBox="0 0 32.131 19.936">
  <g id="Icon_ionic-ios-menu" data-name="Icon ionic-ios-menu" transform="translate(-4.5 -10.125)">
    <path id="Path_27" data-name="Path 27" d="M35.293,13.125H5.839a1.431,1.431,0,0,1-1.339-1.5h0a1.431,1.431,0,0,1,1.339-1.5H35.293a1.431,1.431,0,0,1,1.339,1.5h0A1.431,1.431,0,0,1,35.293,13.125Z" fill="#fccd5a"/>
    <path id="Path_28" data-name="Path 28" d="M35.293,19.875H5.839a1.431,1.431,0,0,1-1.339-1.5h0a1.431,1.431,0,0,1,1.339-1.5H35.293a1.431,1.431,0,0,1,1.339,1.5h0A1.431,1.431,0,0,1,35.293,19.875Z" transform="translate(0 1.718)" fill="#fccd5a"/>
    <path id="Path_29" data-name="Path 29" d="M35.293,26.625H5.839a1.431,1.431,0,0,1-1.339-1.5h0a1.431,1.431,0,0,1,1.339-1.5H35.293a1.431,1.431,0,0,1,1.339,1.5h0A1.431,1.431,0,0,1,35.293,26.625Z" transform="translate(0 3.436)" fill="#fccd5a"/>
  </g>
</svg>
