<svg id="Laag_1-2" xmlns="http://www.w3.org/2000/svg" width="52.34" height="55.92" viewBox="0 0 52.34 55.92">
  <g id="Group_141" data-name="Group 141">
    <ellipse id="Ellipse_26" data-name="Ellipse 26" cx="26.17" cy="27.96" rx="26.17" ry="27.96" transform="translate(0 0)" fill="#fc6c59"/>
    <g id="Group_140" data-name="Group 140">
      <path id="Path_52" data-name="Path 52" d="M28.73,7.56a3.033,3.033,0,0,1,.65-1.05,2.851,2.851,0,0,1,3.17-.37A3.156,3.156,0,0,1,33.9,8.88a4.256,4.256,0,0,1-.92,2.68c-1.23,1.69-3.81,2-4.03,2.89-.22-.89-3.23-1.2-4.46-2.89a4.256,4.256,0,0,1-.92-2.68,3.191,3.191,0,0,1,1.35-2.74,2.854,2.854,0,0,1,3.17.37,3.2,3.2,0,0,1,.65,1.05Z" fill="#fff"/>
      <path id="Path_53" data-name="Path 53" d="M30.32,22.78c-.55-.63.04-1.53.3-2.09a4.919,4.919,0,0,1,2.93-2.63,2.385,2.385,0,0,1,1.12-.07,2.62,2.62,0,0,1,1.66.93,1.7,1.7,0,0,1,.42.82c.1.54-.73.85-1.88,2.18a21.446,21.446,0,0,0-1.4,1.69c-.4.6-.52.79-.75.77-1-.08-1.53-.62-2.39-1.6Z" fill="#fff"/>
      <path id="Path_54" data-name="Path 54" d="M29.59,36.43a20.532,20.532,0,0,0-2.99-8.34c-.73-1.17-1.64-2.34-3.1-4.6-.22-.34-.81-.84-1.33-1.49a10.862,10.862,0,0,1-1.34-1.77,4.266,4.266,0,0,1-.21-3.79c.18-.4.27-.61.43-.69,1.57-.86,6.66,5.4,9.03,8.66.13.17.32.42.53.75a12.255,12.255,0,0,1,1.18,2.3,38.659,38.659,0,0,0,2.67,6.09s.8,1.92,1.44,3.31a2.6,2.6,0,0,1-.21,1.28,4.252,4.252,0,0,1-1.76,1.92c-1.02.75-1.82-.43-2.89.48-1,.85-.83,1.56-1.98,2.24-1.22.73-1.92-.13-3.15.53-1.42.77-1.43,1.58-2.71,2.6-1.07.85-1.65.04-2.69.77-.77.53-.5,1.08-1.6,2.24-.35.37-1.31,1.38-1.98,1.12-.28-.11-.4-.39-.59-.91a9.7,9.7,0,0,1-.75-2.83,32.339,32.339,0,0,1,.96-7.7,1.309,1.309,0,0,1,1.02-.32c.32.14,1.82,7.54,2.32,6.76a25.943,25.943,0,0,1-.99-6.76c.05-1.28-.39-2.42.37-2.99.17-.13.5-.32,1.66-1.02a.49.49,0,0,1,.7.21c.68,3.18,3.21,7.47,3.17,6.08,0,0-1.07-4.04-2.08-6.56-.06-.14-.25-1.37-.35-1.97a3.3,3.3,0,0,1,.21-1.55,4.643,4.643,0,0,1,.91-.75,2.448,2.448,0,0,1,1.01-.23s.83-.18.93-.03a8.331,8.331,0,0,0,.66.9l.08.09a19.739,19.739,0,0,0,3.42,5.96Z" fill="#fff"/>
    </g>
  </g>
</svg>
