<svg xmlns="http://www.w3.org/2000/svg" width="20.836" height="18.231" viewBox="0 0 20.836 18.231">
  <path id="Icon_awesome-hamburger" data-name="Icon awesome-hamburger" d="M18.883,11.366H1.953a1.953,1.953,0,1,0,0,3.907H18.883a1.953,1.953,0,0,0,0-3.907Zm.651,5.209H1.3a.651.651,0,0,0-.651.651v.651a2.6,2.6,0,0,0,2.6,2.6H17.58a2.6,2.6,0,0,0,2.6-2.6v-.651A.651.651,0,0,0,19.534,16.575ZM2.386,10.063H18.45a1.983,1.983,0,0,0,1.417-3.088c-1.635-2.642-5.235-4.721-9.449-4.726S2.6,4.334.969,6.975A1.983,1.983,0,0,0,2.386,10.063ZM15.627,5.506a.651.651,0,1,1-.651.651A.651.651,0,0,1,15.627,5.506ZM10.418,4.2a.651.651,0,1,1-.651.651A.651.651,0,0,1,10.418,4.2Zm-5.209,1.3a.651.651,0,1,1-.651.651A.651.651,0,0,1,5.209,5.506Z" transform="translate(0 -2.25)" fill="#fccd5a"/>
</svg>
